<svg version="1.1" preserveAspectRatio="none" xmlns="http://www.w3.org/2000/svg" width="500" height="500" viewBox="0 0 500 500"><rect width="100%" height="100%" fill="#141414" fill-opacity="1"/><svg viewBox="-36.8908 117.7962 356.2665 61" width="333" height="57.01630661316739" x="83.5px" y="221.4918px" xmlns="http://www.w3.org/2000/svg" xmlns:xlink="http://www.w3.org/1999/xlink" preserveAspectRatio="none"><defs></defs><style>.companyName {fill:#C9EF73;fill-opacity:1;}.icon1 {fill:#C9EF73;fill-opacity:1;}.icon3-str {stroke:#F5F5F5;stroke-opacity:1;}</style><g opacity="1" transform="rotate(0 43.8669 161.7962)">
<svg width="194.7511" height="17" x="43.8669" y="161.7962" version="1.1" preserveAspectRatio="none" viewBox="1.84 -29.68 431.20000000000005 37.64">
  <g transform="matrix(1 0 0 1 0 0)" class="icon1"><path id="id-6izo4zJp20" d="M22.32-10.52L22.28-9.64L4.68-9.64Q4.92-6.36 7.20-4.34Q9.48-2.32 12.96-2.32L12.96-2.32Q14.92-2.32 16.56-3.02Q18.20-3.72 19.40-5.08L19.40-5.08L21-3.24Q19.60-1.56 17.50-0.68Q15.40 0.20 12.88 0.20L12.88 0.20Q9.64 0.20 7.14-1.18Q4.64-2.56 3.24-5Q1.84-7.44 1.84-10.52L1.84-10.52Q1.84-13.60 3.18-16.04Q4.52-18.48 6.86-19.84Q9.20-21.20 12.12-21.20L12.12-21.20Q15.04-21.20 17.36-19.84Q19.68-18.48 21-16.06Q22.32-13.64 22.32-10.52L22.32-10.52ZM12.12-18.76Q9.08-18.76 7.02-16.82Q4.96-14.88 4.68-11.76L4.68-11.76L19.60-11.76Q19.32-14.88 17.26-16.82Q15.20-18.76 12.12-18.76L12.12-18.76Z M45.68-21.04L48.40-21.04L48.40-2.56Q48.40 2.80 45.78 5.38Q43.16 7.96 37.88 7.96L37.88 7.96Q34.96 7.96 32.34 7.10Q29.72 6.24 28.08 4.72L28.08 4.72L29.52 2.56Q31.04 3.92 33.22 4.68Q35.40 5.44 37.80 5.44L37.80 5.44Q41.80 5.44 43.68 3.58Q45.56 1.72 45.56-2.20L45.56-2.20L45.56-4.88Q44.24-2.88 42.10-1.84Q39.96-0.80 37.36-0.80L37.36-0.80Q34.40-0.80 31.98-2.10Q29.56-3.40 28.18-5.74Q26.80-8.08 26.80-11.04L26.80-11.04Q26.80-14 28.18-16.32Q29.56-18.64 31.96-19.92Q34.36-21.20 37.36-21.20L37.36-21.20Q40.04-21.20 42.20-20.12Q44.36-19.04 45.68-17L45.68-17L45.68-21.04ZM37.64-3.32Q39.92-3.32 41.76-4.30Q43.60-5.28 44.62-7.04Q45.64-8.80 45.64-11.04L45.64-11.04Q45.64-13.28 44.62-15.02Q43.60-16.76 41.78-17.74Q39.96-18.72 37.64-18.72L37.64-18.72Q35.36-18.72 33.54-17.76Q31.72-16.80 30.70-15.04Q29.68-13.28 29.68-11.04L29.68-11.04Q29.68-8.80 30.70-7.04Q31.72-5.28 33.54-4.30Q35.36-3.32 37.64-3.32L37.64-3.32Z M73.92-21.04L76.64-21.04L76.64-2.56Q76.64 2.80 74.02 5.38Q71.40 7.96 66.12 7.96L66.12 7.96Q63.20 7.96 60.58 7.10Q57.96 6.24 56.32 4.72L56.32 4.72L57.76 2.56Q59.28 3.92 61.46 4.68Q63.64 5.44 66.04 5.44L66.04 5.44Q70.04 5.44 71.92 3.58Q73.80 1.72 73.80-2.20L73.80-2.20L73.80-4.88Q72.48-2.88 70.34-1.84Q68.20-0.80 65.60-0.80L65.60-0.80Q62.64-0.80 60.22-2.10Q57.80-3.40 56.42-5.74Q55.04-8.08 55.04-11.04L55.04-11.04Q55.04-14 56.42-16.32Q57.80-18.64 60.20-19.92Q62.60-21.20 65.60-21.20L65.60-21.20Q68.28-21.20 70.44-20.12Q72.60-19.04 73.92-17L73.92-17L73.92-21.04ZM65.88-3.32Q68.16-3.32 70-4.30Q71.84-5.28 72.86-7.04Q73.88-8.80 73.88-11.04L73.88-11.04Q73.88-13.28 72.86-15.02Q71.84-16.76 70.02-17.74Q68.20-18.72 65.88-18.72L65.88-18.72Q63.60-18.72 61.78-17.76Q59.96-16.80 58.94-15.04Q57.92-13.28 57.92-11.04L57.92-11.04Q57.92-8.80 58.94-7.04Q59.96-5.28 61.78-4.30Q63.60-3.32 65.88-3.32L65.88-3.32Z M103.76-10.52L103.72-9.64L86.12-9.64Q86.36-6.36 88.64-4.34Q90.92-2.32 94.40-2.32L94.40-2.32Q96.36-2.32 98-3.02Q99.64-3.72 100.84-5.08L100.84-5.08L102.44-3.24Q101.04-1.56 98.94-0.68Q96.84 0.20 94.32 0.20L94.32 0.20Q91.08 0.20 88.58-1.18Q86.08-2.56 84.68-5Q83.28-7.44 83.28-10.52L83.28-10.52Q83.28-13.60 84.62-16.04Q85.96-18.48 88.30-19.84Q90.64-21.20 93.56-21.20L93.56-21.20Q96.48-21.20 98.80-19.84Q101.12-18.48 102.44-16.06Q103.76-13.64 103.76-10.52L103.76-10.52ZM93.56-18.76Q90.52-18.76 88.46-16.82Q86.40-14.88 86.12-11.76L86.12-11.76L101.04-11.76Q100.76-14.88 98.70-16.82Q96.64-18.76 93.56-18.76L93.56-18.76Z M116.00 0.20Q113.44 0.20 111.10-0.54Q108.76-1.28 107.44-2.40L107.44-2.40L108.72-4.64Q110.04-3.60 112.04-2.94Q114.04-2.28 116.20-2.28L116.20-2.28Q119.08-2.28 120.46-3.18Q121.84-4.08 121.84-5.72L121.84-5.72Q121.84-6.88 121.08-7.54Q120.32-8.20 119.16-8.54Q118.00-8.88 116.08-9.20L116.08-9.20Q113.52-9.68 111.96-10.18Q110.40-10.68 109.30-11.88Q108.20-13.08 108.20-15.20L108.20-15.20Q108.20-17.84 110.40-19.52Q112.60-21.20 116.52-21.20L116.52-21.20Q118.56-21.20 120.60-20.66Q122.64-20.12 123.96-19.24L123.96-19.24L122.72-16.96Q120.12-18.76 116.52-18.76L116.52-18.76Q113.80-18.76 112.42-17.80Q111.04-16.84 111.04-15.28L111.04-15.28Q111.04-14.08 111.82-13.36Q112.60-12.64 113.76-12.30Q114.92-11.96 116.96-11.60L116.96-11.60Q119.48-11.12 121.00-10.64Q122.52-10.16 123.60-9Q124.68-7.84 124.68-5.80L124.68-5.80Q124.68-3.04 122.38-1.42Q120.08 0.20 116.00 0.20L116.00 0.20Z M150.72 0.20Q147.60 0.20 145.14-1.16Q142.68-2.52 141.28-4.98Q139.88-7.44 139.88-10.52L139.88-10.52Q139.88-13.60 141.28-16.04Q142.68-18.48 145.14-19.84Q147.60-21.20 150.72-21.20L150.72-21.20Q153.44-21.20 155.58-20.14Q157.72-19.08 158.96-17.04L158.96-17.04L156.84-15.60Q155.80-17.16 154.20-17.94Q152.60-18.72 150.72-18.72L150.72-18.72Q148.44-18.72 146.62-17.70Q144.80-16.68 143.78-14.80Q142.76-12.92 142.76-10.52L142.76-10.52Q142.76-8.08 143.78-6.22Q144.80-4.36 146.62-3.34Q148.44-2.32 150.72-2.32L150.72-2.32Q152.60-2.32 154.20-3.08Q155.80-3.84 156.84-5.40L156.84-5.40L158.96-3.96Q157.72-1.92 155.56-0.86Q153.40 0.20 150.72 0.20L150.72 0.20Z M175.72-21.20Q179.68-21.20 182.02-18.90Q184.36-16.60 184.36-12.20L184.36-12.20L184.36 0L181.52 0L181.52-11.92Q181.52-15.20 179.88-16.92Q178.24-18.64 175.20-18.64L175.20-18.64Q171.80-18.64 169.82-16.62Q167.84-14.60 167.84-11.04L167.84-11.04L167.84 0L165.00 0L165.00-29.68L167.84-29.68L167.84-17.36Q169.00-19.20 171.04-20.20Q173.08-21.20 175.72-21.20L175.72-21.20Z M192.88 0L192.88-21.04L195.72-21.04L195.72 0L192.88 0ZM194.32-25.64Q193.44-25.64 192.84-26.24Q192.24-26.84 192.24-27.68L192.24-27.68Q192.24-28.48 192.84-29.08Q193.44-29.68 194.32-29.68L194.32-29.68Q195.20-29.68 195.80-29.10Q196.40-28.52 196.40-27.72L196.40-27.72Q196.40-26.84 195.80-26.24Q195.20-25.64 194.32-25.64L194.32-25.64Z M213.16 0.20Q210.04 0.20 207.58-1.16Q205.12-2.52 203.72-4.98Q202.32-7.44 202.32-10.52L202.32-10.52Q202.32-13.60 203.72-16.04Q205.12-18.48 207.58-19.84Q210.04-21.20 213.16-21.20L213.16-21.20Q215.88-21.20 218.02-20.14Q220.16-19.08 221.40-17.04L221.40-17.04L219.28-15.60Q218.24-17.16 216.64-17.94Q215.04-18.72 213.16-18.72L213.16-18.72Q210.88-18.72 209.06-17.70Q207.24-16.68 206.22-14.80Q205.20-12.92 205.20-10.52L205.20-10.52Q205.20-8.08 206.22-6.22Q207.24-4.36 209.06-3.34Q210.88-2.32 213.16-2.32L213.16-2.32Q215.04-2.32 216.64-3.08Q218.24-3.84 219.28-5.40L219.28-5.40L221.40-3.96Q220.16-1.92 218.00-0.86Q215.84 0.20 213.16 0.20L213.16 0.20Z M243.72 0L235.24-10.56L230.28-6L230.28 0L227.44 0L227.44-29.68L230.28-29.68L230.28-9.56L242.84-21.04L246.36-21.04L237.36-12.44L247.20 0L243.72 0Z M269.80-10.52L269.76-9.64L252.16-9.64Q252.40-6.36 254.68-4.34Q256.96-2.32 260.44-2.32L260.44-2.32Q262.40-2.32 264.04-3.02Q265.68-3.72 266.88-5.08L266.88-5.08L268.48-3.24Q267.08-1.56 264.98-0.68Q262.88 0.20 260.36 0.20L260.36 0.20Q257.12 0.20 254.62-1.18Q252.12-2.56 250.72-5Q249.32-7.44 249.32-10.52L249.32-10.52Q249.32-13.60 250.66-16.04Q252.00-18.48 254.34-19.84Q256.68-21.20 259.60-21.20L259.60-21.20Q262.52-21.20 264.84-19.84Q267.16-18.48 268.48-16.06Q269.80-13.64 269.80-10.52L269.80-10.52ZM259.60-18.76Q256.56-18.76 254.50-16.82Q252.44-14.88 252.16-11.76L252.16-11.76L267.08-11.76Q266.80-14.88 264.74-16.82Q262.68-18.76 259.60-18.76L259.60-18.76Z M287.12-21.20Q291.08-21.20 293.42-18.90Q295.76-16.60 295.76-12.20L295.76-12.20L295.76 0L292.92 0L292.92-11.92Q292.92-15.20 291.28-16.92Q289.64-18.64 286.60-18.64L286.60-18.64Q283.20-18.64 281.22-16.62Q279.24-14.60 279.24-11.04L279.24-11.04L279.24 0L276.40 0L276.40-21.04L279.12-21.04L279.12-17.16Q280.28-19.08 282.34-20.14Q284.40-21.20 287.12-21.20L287.12-21.20Z M332.04-21.04L334.76-21.04L334.76 7.76L331.92 7.76L331.92-3.96Q330.60-1.92 328.54-0.86Q326.48 0.20 323.92 0.20L323.92 0.20Q320.92 0.20 318.54-1.14Q316.16-2.48 314.80-4.92Q313.44-7.36 313.44-10.52L313.44-10.52Q313.44-13.64 314.80-16.08Q316.16-18.52 318.56-19.86Q320.96-21.20 323.92-21.20L323.92-21.20Q326.56-21.20 328.66-20.08Q330.76-18.96 332.04-16.88L332.04-16.88L332.04-21.04ZM324.16-2.32Q326.36-2.32 328.14-3.34Q329.92-4.36 330.94-6.24Q331.96-8.12 331.96-10.52L331.96-10.52Q331.96-12.92 330.94-14.78Q329.92-16.64 328.14-17.68Q326.36-18.72 324.16-18.72L324.16-18.72Q321.92-18.72 320.14-17.68Q318.36-16.64 317.34-14.78Q316.32-12.92 316.32-10.52L316.32-10.52Q316.32-8.12 317.34-6.24Q318.36-4.36 320.14-3.34Q321.92-2.32 324.16-2.32L324.16-2.32Z M359.60-21.04L362.44-21.04L362.44 0L359.72 0L359.72-3.84Q358.60-1.92 356.64-0.86Q354.68 0.20 352.16 0.20L352.16 0.20Q348.04 0.20 345.66-2.10Q343.28-4.40 343.28-8.84L343.28-8.84L343.28-21.04L346.12-21.04L346.12-9.12Q346.12-5.80 347.76-4.08Q349.40-2.36 352.44-2.36L352.44-2.36Q355.76-2.36 357.68-4.38Q359.60-6.40 359.60-10L359.60-10L359.60-21.04Z M378.56-21.20Q382.68-21.20 384.88-19.14Q387.08-17.08 387.08-13.04L387.08-13.04L387.08 0L384.36 0L384.36-3.28Q383.40-1.64 381.54-0.72Q379.68 0.20 377.12 0.20L377.12 0.20Q373.60 0.20 371.52-1.48Q369.44-3.16 369.44-5.92L369.44-5.92Q369.44-8.60 371.38-10.24Q373.32-11.88 377.56-11.88L377.56-11.88L384.24-11.88L384.24-13.16Q384.24-15.88 382.72-17.30Q381.20-18.72 378.28-18.72L378.28-18.72Q376.28-18.72 374.44-18.06Q372.60-17.40 371.28-16.24L371.28-16.24L370.00-18.36Q371.60-19.72 373.84-20.46Q376.08-21.20 378.56-21.20L378.56-21.20ZM377.56-2.04Q379.96-2.04 381.68-3.14Q383.40-4.24 384.24-6.32L384.24-6.32L384.24-9.76L377.64-9.76Q372.24-9.76 372.24-6L372.24-6Q372.24-4.16 373.64-3.10Q375.04-2.04 377.56-2.04L377.56-2.04Z M395.60 0L395.60-21.04L398.44-21.04L398.44 0L395.60 0ZM397.04-25.64Q396.16-25.64 395.56-26.24Q394.96-26.84 394.96-27.68L394.96-27.68Q394.96-28.48 395.56-29.08Q396.16-29.68 397.04-29.68L397.04-29.68Q397.92-29.68 398.52-29.10Q399.12-28.52 399.12-27.72L399.12-27.72Q399.12-26.84 398.52-26.24Q397.92-25.64 397.04-25.64L397.04-25.64Z M407.16 0L407.16-29.68L410.00-29.68L410.00 0L407.16 0Z M424.36 0.20Q421.80 0.20 419.46-0.54Q417.12-1.28 415.80-2.40L415.80-2.40L417.08-4.64Q418.40-3.60 420.40-2.94Q422.40-2.28 424.56-2.28L424.56-2.28Q427.44-2.28 428.82-3.18Q430.20-4.08 430.20-5.72L430.20-5.72Q430.20-6.88 429.44-7.54Q428.68-8.20 427.52-8.54Q426.36-8.88 424.44-9.20L424.44-9.20Q421.88-9.68 420.32-10.18Q418.76-10.68 417.66-11.88Q416.56-13.08 416.56-15.20L416.56-15.20Q416.56-17.84 418.76-19.52Q420.96-21.20 424.88-21.20L424.88-21.20Q426.92-21.20 428.96-20.66Q431.00-20.12 432.32-19.24L432.32-19.24L431.08-16.96Q428.48-18.76 424.88-18.76L424.88-18.76Q422.16-18.76 420.78-17.80Q419.40-16.84 419.40-15.28L419.40-15.28Q419.40-14.08 420.18-13.36Q420.96-12.64 422.12-12.30Q423.28-11.96 425.32-11.60L425.32-11.60Q427.84-11.12 429.36-10.64Q430.88-10.16 431.96-9Q433.04-7.84 433.04-5.80L433.04-5.80Q433.04-3.04 430.74-1.42Q428.44 0.20 424.36 0.20L424.36 0.20Z"/></g>
</svg>
</g><g opacity="1" transform="rotate(0 -36.8908 117.7962)">
<svg width="356.2665" height="28" x="-36.8908" y="117.7962" version="1.1" preserveAspectRatio="none" viewBox="1.4 -31 401.56000000000006 31.560000000000002">
  <g transform="matrix(1 0 0 1 0 0)" class="companyName"><path id="id-D6z1nYkh18" d="M35.76-27.52Q34.40-27.44 33.80-27.20Q33.20-26.96 32.98-26.28Q32.76-25.60 32.76-24.08L32.76-24.08L32.76-4.24Q32.76-2.72 32.98-2.04Q33.20-1.36 33.82-1.12Q34.44-0.88 35.76-0.80L35.76-0.80L35.76 0Q33.56-0.12 29.48-0.12L29.48-0.12Q25.20-0.12 23.16 0L23.16 0L23.16-0.80Q24.60-0.88 25.26-1.12Q25.92-1.36 26.16-2.04Q26.40-2.72 26.40-4.24L26.40-4.24L26.40-25.16L16.76 0.04L16.12 0.04L5.32-25.72L5.32-6.56Q5.32-4.20 5.56-3.10Q5.80-2 6.60-1.50Q7.40-1 9.20-0.80L9.20-0.80L9.20 0Q7.64-0.12 4.88-0.12L4.88-0.12Q2.68-0.12 1.40 0L1.40 0L1.40-0.80Q2.72-1 3.34-1.48Q3.96-1.96 4.18-3Q4.40-4.04 4.40-6.08L4.40-6.08L4.40-24.08Q4.40-25.60 4.18-26.28Q3.96-26.96 3.34-27.20Q2.72-27.44 1.40-27.52L1.40-27.52L1.40-28.32Q2.68-28.20 4.88-28.20L4.88-28.20Q8.56-28.20 11.20-28.32L11.20-28.32L19.28-8.84L26.64-28.20L29.48-28.20Q33.56-28.20 35.76-28.32L35.76-28.32L35.76-27.52Z M43.24-31Q44.92-31 45.90-30.18Q46.88-29.36 46.88-27.92L46.88-27.92Q46.88-26.48 45.90-25.66Q44.92-24.84 43.24-24.84L43.24-24.84Q41.56-24.84 40.58-25.66Q39.60-26.48 39.60-27.92L39.60-27.92Q39.60-29.36 40.58-30.18Q41.56-31 43.24-31L43.24-31ZM46.36-21.12L46.36-3.72Q46.36-2.08 46.94-1.46Q47.52-0.84 48.92-0.84L48.92-0.84L48.92 0Q44.92-0.16 43.60-0.16L43.60-0.16Q42.36-0.16 38.04 0L38.04 0L38.04-0.84Q39.48-0.84 40.04-1.46Q40.60-2.08 40.60-3.72L40.60-3.72L40.60-16.32Q40.60-18.16 40.04-19Q39.48-19.84 38.04-19.84L38.04-19.84L38.04-20.68Q39.32-20.56 40.52-20.56L40.52-20.56Q44.08-20.56 46.36-21.12L46.36-21.12Z M65.52-21.24Q68.56-21.24 69.92-19.68L69.92-19.68Q70.60-18.92 70.88-17.72Q71.16-16.52 71.16-14.48L71.16-14.48L71.16-3.72Q71.16-2.08 71.74-1.46Q72.32-0.84 73.72-0.84L73.72-0.84L73.72 0Q69.72-0.16 68.44-0.16L68.44-0.16Q67.24-0.16 63.24 0L63.24 0L63.24-0.84Q64.44-0.84 64.92-1.46Q65.40-2.08 65.40-3.72L65.40-3.72L65.40-16.16Q65.40-17.80 64.86-18.64Q64.32-19.48 62.92-19.48L62.92-19.48Q61.28-19.48 60.12-18.14Q58.96-16.80 58.96-14.84L58.96-14.84L58.96-3.72Q58.96-2.08 59.44-1.46Q59.92-0.84 61.12-0.84L61.12-0.84L61.12 0Q57.44-0.16 56.16-0.16L56.16-0.16Q54.96-0.16 50.64 0L50.64 0L50.64-0.84Q52.08-0.84 52.64-1.46Q53.20-2.08 53.20-3.72L53.20-3.72L53.20-16.32Q53.20-18.16 52.64-19Q52.08-19.84 50.64-19.84L50.64-19.84L50.64-20.68Q51.92-20.56 53.12-20.56L53.12-20.56Q56.68-20.56 58.96-21.12L58.96-21.12L58.96-17.52Q60.76-21.24 65.52-21.24L65.52-21.24Z M80.40-31Q82.08-31 83.06-30.18Q84.04-29.36 84.04-27.92L84.04-27.92Q84.04-26.48 83.06-25.66Q82.08-24.84 80.40-24.84L80.40-24.84Q78.72-24.84 77.74-25.66Q76.76-26.48 76.76-27.92L76.76-27.92Q76.76-29.36 77.74-30.18Q78.72-31 80.40-31L80.40-31ZM83.52-21.12L83.52-3.72Q83.52-2.08 84.10-1.46Q84.68-0.84 86.08-0.84L86.08-0.84L86.08 0Q82.08-0.16 80.76-0.16L80.76-0.16Q79.52-0.16 75.20 0L75.20 0L75.20-0.84Q76.64-0.84 77.20-1.46Q77.76-2.08 77.76-3.72L77.76-3.72L77.76-16.32Q77.76-18.16 77.20-19Q76.64-19.84 75.20-19.84L75.20-19.84L75.20-20.68Q76.48-20.56 77.68-20.56L77.68-20.56Q81.24-20.56 83.52-21.12L83.52-21.12Z M109.60-28.32Q109.32-24.92 109.32-22.24L109.32-22.24Q109.32-20.36 109.44-19.20L109.44-19.20L108.52-19.20Q107.72-23.72 106.12-25.56Q104.52-27.40 101.64-27.40L101.64-27.40L100.32-27.40Q99.08-27.40 98.52-27.20Q97.96-27 97.76-26.42Q97.56-25.84 97.56-24.56L97.56-24.56L97.56-14.48L98.96-14.48Q101.08-14.48 102.18-16.04Q103.28-17.60 103.72-19.76L103.72-19.76L104.64-19.76Q104.52-18.08 104.52-16L104.52-16L104.52-14.08Q104.52-12.04 104.76-8.40L104.76-8.40L103.84-8.40Q103-13.68 98.96-13.68L98.96-13.68L97.56-13.68L97.56-4.48Q97.56-2.88 97.90-2.14Q98.24-1.40 99.10-1.16Q99.96-0.92 101.84-0.88L101.84-0.88L101.84 0Q96.92-0.12 94.52-0.12L94.52-0.12Q92.52-0.12 89.48-0.04L89.48-0.04L88.20 0L88.20-0.80Q89.52-0.88 90.14-1.12Q90.76-1.36 90.98-2.04Q91.20-2.72 91.20-4.24L91.20-4.24L91.20-24.08Q91.20-25.60 90.98-26.28Q90.76-26.96 90.14-27.20Q89.52-27.44 88.20-27.52L88.20-27.52L88.20-28.32Q92.52-28.20 101.24-28.20L101.24-28.20Q107.12-28.20 109.60-28.32L109.60-28.32Z M122.24-2.72Q125.52-2.72 127.52-5.92L127.52-5.92L128.24-5.68Q127.44-3.08 125.38-1.26Q123.32 0.56 120.24 0.56L120.24 0.56Q116.00 0.56 113.50-2.14Q111.00-4.84 111.00-10.12L111.00-10.12Q111.00-15.52 113.68-18.38Q116.36-21.24 120.80-21.24L120.80-21.24Q128.32-21.24 128.32-12.36L128.32-12.36L117.08-12.36Q117.04-11.76 117.04-10.48L117.04-10.48Q117.04-7.84 117.78-6.08Q118.52-4.32 119.70-3.52Q120.88-2.72 122.24-2.72L122.24-2.72ZM120.56-20.40Q119.12-20.40 118.18-18.62Q117.24-16.84 117.00-13.12L117.00-13.12L123.28-13.12Q123.36-16.28 122.66-18.34Q121.96-20.40 120.56-20.40L120.56-20.40Z M144.16-21.24Q145.96-21.24 146.88-20.16Q147.80-19.08 147.80-17.56L147.80-17.56Q147.80-16.08 146.94-15.14Q146.08-14.20 144.68-14.20L144.68-14.20Q143.32-14.20 142.52-14.90Q141.72-15.60 141.72-16.76L141.72-16.76Q141.72-18.68 143.48-19.88L143.48-19.88Q143.32-19.92 143-19.92L143-19.92Q142.60-19.92 142.36-19.84L142.36-19.84Q140.84-19.60 139.78-18Q138.72-16.40 138.72-14.72L138.72-14.72L138.72-4.12Q138.72-2.28 139.62-1.56Q140.52-0.84 142.48-0.84L142.48-0.84L142.48 0Q141.92 0 141.56-0.04L141.56-0.04Q137.48-0.16 136.12-0.16L136.12-0.16Q135.04-0.16 131.20-0.04L131.20-0.04Q130.88 0 130.40 0L130.40 0L130.40-0.84Q131.84-0.84 132.40-1.46Q132.96-2.08 132.96-3.72L132.96-3.72L132.96-16.32Q132.96-18.16 132.40-19Q131.84-19.84 130.40-19.84L130.40-19.84L130.40-20.68Q131.68-20.56 132.88-20.56L132.88-20.56Q136.44-20.56 138.72-21.12L138.72-21.12L138.72-17.40Q139.48-19.12 140.92-20.18Q142.36-21.24 144.16-21.24L144.16-21.24Z M181.24-3.72Q181.24-2.08 181.82-1.46Q182.40-0.84 183.80-0.84L183.80-0.84L183.80 0Q179.80-0.16 178.52-0.16L178.52-0.16Q177.40-0.16 173.56 0L173.56 0L173.56-0.84Q174.64-0.84 175.06-1.44Q175.48-2.04 175.48-3.72L175.48-3.72L175.48-16.16Q175.48-17.84 174.98-18.66Q174.48-19.48 173.08-19.48L173.08-19.48Q171.60-19.48 170.50-18.24Q169.40-17 169.20-15.20L169.20-15.20L169.20-14.48L169.20-3.72Q169.20-2.08 169.70-1.46Q170.20-0.84 171.52-0.84L171.52-0.84L171.52 0Q167.68-0.16 166.48-0.16L166.48-0.16Q165.36-0.16 161.52 0L161.52 0L161.52-0.84Q162.60-0.84 163.02-1.46Q163.44-2.08 163.44-3.72L163.44-3.72L163.44-16.16Q163.44-17.84 163-18.66Q162.56-19.48 161.28-19.48L161.28-19.48Q159.68-19.48 158.54-18.14Q157.40-16.80 157.40-14.84L157.40-14.84L157.40-3.72Q157.40-2.08 157.82-1.46Q158.24-0.84 159.32-0.84L159.32-0.84L159.32 0Q155.80-0.16 154.60-0.16L154.60-0.16Q153.40-0.16 149.08 0L149.08 0L149.08-0.84Q150.52-0.84 151.08-1.46Q151.64-2.08 151.64-3.72L151.64-3.72L151.64-16.32Q151.64-18.16 151.08-19Q150.52-19.84 149.08-19.84L149.08-19.84L149.08-20.68Q150.36-20.56 151.56-20.56L151.56-20.56Q155.12-20.56 157.40-21.12L157.40-21.12L157.40-17.52Q159.16-21.24 163.60-21.24L163.60-21.24Q166.64-21.24 168-19.68L168-19.68Q168.76-18.88 169-17.28L169-17.28Q170.04-19.44 171.72-20.34Q173.40-21.24 175.64-21.24L175.64-21.24Q178.68-21.24 180.04-19.68L180.04-19.68Q180.68-18.96 180.96-17.72Q181.24-16.48 181.24-14.48L181.24-14.48L181.24-3.72Z M190.56 0.28Q188 0.28 186.74-1.04Q185.48-2.36 185.48-4.52L185.48-4.52Q185.48-6.32 186.42-7.50Q187.36-8.68 188.70-9.32Q190.04-9.96 192.12-10.68L192.12-10.68Q194.32-11.44 195.34-12.06Q196.36-12.68 196.36-13.76L196.36-13.76L196.36-16.88Q196.36-18.56 195.58-19.50Q194.80-20.44 193.16-20.44L193.16-20.44Q191.24-20.44 190.24-19.48L190.24-19.48Q191.36-19.08 191.98-18.28Q192.60-17.48 192.60-16.40L192.60-16.40Q192.60-15.04 191.68-14.24Q190.76-13.44 189.44-13.44L189.44-13.44Q188.04-13.44 187.28-14.32Q186.52-15.20 186.52-16.52L186.52-16.52Q186.52-17.64 187.06-18.42Q187.60-19.20 188.72-19.88L188.72-19.88Q189.80-20.52 191.38-20.88Q192.96-21.24 194.84-21.24L194.84-21.24Q196.80-21.24 198.24-20.84Q199.68-20.44 200.64-19.48L200.64-19.48Q201.52-18.60 201.82-17.32Q202.12-16.04 202.12-13.84L202.12-13.84L202.12-2.96Q202.12-2 202.30-1.60Q202.48-1.20 203-1.20L203-1.20Q203.60-1.20 204.44-1.88L204.44-1.88L204.84-1.20Q203.04 0.28 200.44 0.28L200.44 0.28Q198.24 0.28 197.36-0.60Q196.48-1.48 196.44-2.96L196.44-2.96Q194.44 0.28 190.56 0.28L190.56 0.28ZM193.64-2.28Q195.20-2.28 196.36-3.92L196.36-3.92L196.36-12.12Q195.88-11.32 194.32-10.36L194.32-10.36Q192.76-9.36 191.96-8.36Q191.16-7.36 191.16-5.48L191.16-5.48Q191.16-3.84 191.84-3.06Q192.52-2.28 193.64-2.28L193.64-2.28Z M221.68-12.48L221.68-9.16L207.24-9.16L207.24-12.48L221.68-12.48Z M236.92-11.44L234.80-11.44L234.80-4.48Q234.80-2.88 235.14-2.14Q235.48-1.40 236.34-1.16Q237.20-0.92 239.08-0.88L239.08-0.88L239.08 0Q234.16-0.12 231.76-0.12L231.76-0.12Q229.76-0.12 226.72-0.04L226.72-0.04L225.44 0L225.44-0.80Q226.76-0.88 227.38-1.12Q228-1.36 228.22-2.04Q228.44-2.72 228.44-4.24L228.44-4.24L228.44-24.08Q228.44-25.60 228.22-26.28Q228-26.96 227.38-27.20Q226.76-27.44 225.44-27.52L225.44-27.52L225.44-28.32Q227.48-28.20 231.52-28.20L231.52-28.20L235.96-28.24Q236.76-28.28 237.80-28.28L237.80-28.28Q243.20-28.28 246.04-26.14Q248.88-24 248.88-20.40L248.88-20.40Q248.88-18.20 247.76-16.18Q246.64-14.16 243.98-12.80Q241.32-11.44 236.92-11.44L236.92-11.44ZM237.28-27.52Q236.20-27.52 235.70-27.24Q235.20-26.96 235-26.24Q234.80-25.52 234.80-24.08L234.80-24.08L234.80-12.24L236.52-12.24Q239.76-12.24 241-14.32Q242.24-16.40 242.24-19.96L242.24-19.96Q242.24-23.84 241.10-25.68Q239.96-27.52 237.28-27.52L237.28-27.52Z M261.08-28.84Q263.16-28.84 264.40-28.44Q265.64-28.04 266.92-27.28L266.92-27.28Q267.36-27.04 267.70-26.88Q268.04-26.72 268.28-26.72L268.28-26.72Q268.64-26.72 268.84-27.14Q269.04-27.56 269.16-28.48L269.16-28.48L270.08-28.48Q269.88-25.80 269.88-19.36L269.88-19.36L268.96-19.36Q268.80-21.52 267.98-23.48Q267.16-25.44 265.66-26.66Q264.16-27.88 262.16-27.88L262.16-27.88Q260.20-27.88 258.98-26.78Q257.76-25.68 257.76-23.80L257.76-23.80Q257.76-22.40 258.36-21.36Q258.96-20.32 260.04-19.46Q261.12-18.60 263.36-17.12L263.36-17.12L264.64-16.24Q267-14.68 268.36-13.52Q269.72-12.36 270.58-10.82Q271.44-9.28 271.44-7.24L271.44-7.24Q271.44-4.68 270.12-2.94Q268.80-1.20 266.54-0.32Q264.28 0.56 261.52 0.56L261.52 0.56Q259.28 0.56 257.80 0.16Q256.32-0.24 255.08-0.92L255.08-0.92Q254.20-1.48 253.72-1.48L253.72-1.48Q253.36-1.48 253.16-1.06Q252.96-0.64 252.84 0.28L252.84 0.28L251.92 0.28Q252.08-2.24 252.08-10.52L252.08-10.52L253.00-10.52Q253.28-6.04 255.00-3.26Q256.72-0.48 260.28-0.48L260.28-0.48Q262.44-0.48 263.84-1.64Q265.24-2.80 265.24-4.96L265.24-4.96Q265.24-7.20 263.80-8.80Q262.36-10.40 259.24-12.40L259.24-12.40Q256.84-13.96 255.40-15.12Q253.96-16.28 253.04-17.86Q252.12-19.44 252.12-21.52L252.12-21.52Q252.12-23.92 253.34-25.58Q254.56-27.24 256.60-28.04Q258.64-28.84 261.08-28.84L261.08-28.84Z M289.92-12.48L289.92-9.16L275.48-9.16L275.48-12.48L289.92-12.48Z M308.20-28.88Q312.44-28.88 315.62-27.16Q318.80-25.44 320.56-22.18Q322.32-18.92 322.32-14.40L322.32-14.40Q322.32-10 320.52-6.60Q318.72-3.20 315.50-1.32Q312.28 0.56 308.16 0.56L308.16 0.56Q303.92 0.56 300.74-1.16Q297.56-2.88 295.80-6.14Q294.04-9.40 294.04-13.92L294.04-13.92Q294.04-18.32 295.84-21.72Q297.64-25.12 300.86-27Q304.08-28.88 308.20-28.88L308.20-28.88ZM308.04-28.16Q305.84-28.16 304.16-26.38Q302.48-24.60 301.58-21.40Q300.68-18.20 300.68-14.08L300.68-14.08Q300.68-9.92 301.70-6.76Q302.72-3.60 304.46-1.88Q306.20-0.16 308.32-0.16L308.32-0.16Q310.52-0.16 312.20-1.94Q313.88-3.72 314.78-6.92Q315.68-10.12 315.68-14.24L315.68-14.24Q315.68-18.40 314.66-21.56Q313.64-24.72 311.90-26.44Q310.16-28.16 308.04-28.16L308.04-28.16Z M341.04-20.56Q343.08-20.56 344.12-20.68L344.12-20.68L344.12-19.88Q343.28-19.64 342.62-18.86Q341.96-18.08 341.36-16.44L341.36-16.44L335.52 0.08Q335.08 0.04 334.20 0.04L334.20 0.04Q333.36 0.04 332.92 0.08L332.92 0.08L325.80-17.60Q325.24-18.96 324.66-19.40Q324.08-19.84 323.48-19.84L323.48-19.84L323.48-20.68Q326.28-20.48 329.16-20.48L329.16-20.48Q331.68-20.48 334.36-20.68L334.36-20.68L334.36-19.84Q333.00-19.84 332.42-19.66Q331.84-19.48 331.84-18.68L331.84-18.68Q331.84-18.36 332.04-17.68L332.04-17.68L336.60-5.56L339.48-13.48Q340.12-15.36 340.12-16.72L340.12-16.72Q340.12-19.64 337.20-19.88L337.20-19.88L337.20-20.68Q339.04-20.56 341.04-20.56L341.04-20.56Z M358.88-21.24Q360.68-21.24 361.60-20.16Q362.52-19.08 362.52-17.56L362.52-17.56Q362.52-16.08 361.66-15.14Q360.80-14.20 359.40-14.20L359.40-14.20Q358.04-14.20 357.24-14.90Q356.44-15.60 356.44-16.76L356.44-16.76Q356.44-18.68 358.20-19.88L358.20-19.88Q358.04-19.92 357.72-19.92L357.72-19.92Q357.32-19.92 357.08-19.84L357.08-19.84Q355.56-19.60 354.50-18Q353.44-16.40 353.44-14.72L353.44-14.72L353.44-4.12Q353.44-2.28 354.34-1.56Q355.24-0.84 357.20-0.84L357.20-0.84L357.20 0Q356.64 0 356.28-0.04L356.28-0.04Q352.20-0.16 350.84-0.16L350.84-0.16Q349.76-0.16 345.92-0.04L345.92-0.04Q345.60 0 345.12 0L345.12 0L345.12-0.84Q346.56-0.84 347.12-1.46Q347.68-2.08 347.68-3.72L347.68-3.72L347.68-16.32Q347.68-18.16 347.12-19Q346.56-19.84 345.12-19.84L345.12-19.84L345.12-20.68Q346.40-20.56 347.60-20.56L347.60-20.56Q351.16-20.56 353.44-21.12L353.44-21.12L353.44-17.40Q354.20-19.12 355.64-20.18Q357.08-21.24 358.88-21.24L358.88-21.24Z M375.00-2.72Q378.28-2.72 380.28-5.92L380.28-5.92L381.00-5.68Q380.20-3.08 378.14-1.26Q376.08 0.56 373.00 0.56L373.00 0.56Q368.76 0.56 366.26-2.14Q363.76-4.84 363.76-10.12L363.76-10.12Q363.76-15.52 366.44-18.38Q369.12-21.24 373.56-21.24L373.56-21.24Q381.08-21.24 381.08-12.36L381.08-12.36L369.84-12.36Q369.80-11.76 369.80-10.48L369.80-10.48Q369.80-7.84 370.54-6.08Q371.28-4.32 372.46-3.52Q373.64-2.72 375.00-2.72L375.00-2.72ZM373.32-20.40Q371.88-20.40 370.94-18.62Q370.00-16.84 369.76-13.12L369.76-13.12L376.04-13.12Q376.12-16.28 375.42-18.34Q374.72-20.40 373.32-20.40L373.32-20.40Z M388.68 0.28Q386.12 0.28 384.86-1.04Q383.60-2.36 383.60-4.52L383.60-4.52Q383.60-6.32 384.54-7.50Q385.48-8.68 386.82-9.32Q388.16-9.96 390.24-10.68L390.24-10.68Q392.44-11.44 393.46-12.06Q394.48-12.68 394.48-13.76L394.48-13.76L394.48-16.88Q394.48-18.56 393.70-19.50Q392.92-20.44 391.28-20.44L391.28-20.44Q389.36-20.44 388.36-19.48L388.36-19.48Q389.48-19.08 390.10-18.28Q390.72-17.48 390.72-16.40L390.72-16.40Q390.72-15.04 389.80-14.24Q388.88-13.44 387.56-13.44L387.56-13.44Q386.16-13.44 385.40-14.32Q384.64-15.20 384.64-16.52L384.64-16.52Q384.64-17.64 385.18-18.42Q385.72-19.20 386.84-19.88L386.84-19.88Q387.92-20.52 389.50-20.88Q391.08-21.24 392.96-21.24L392.96-21.24Q394.92-21.24 396.36-20.84Q397.80-20.44 398.76-19.48L398.76-19.48Q399.64-18.60 399.94-17.32Q400.24-16.04 400.24-13.84L400.24-13.84L400.24-2.96Q400.24-2 400.42-1.60Q400.60-1.20 401.12-1.20L401.12-1.20Q401.72-1.20 402.56-1.88L402.56-1.88L402.96-1.20Q401.16 0.28 398.56 0.28L398.56 0.28Q396.36 0.28 395.48-0.60Q394.60-1.48 394.56-2.96L394.56-2.96Q392.56 0.28 388.68 0.28L388.68 0.28ZM391.76-2.28Q393.32-2.28 394.48-3.92L394.48-3.92L394.48-12.12Q394.00-11.32 392.44-10.36L392.44-10.36Q390.88-9.36 390.08-8.36Q389.28-7.36 389.28-5.48L389.28-5.48Q389.28-3.84 389.96-3.06Q390.64-2.28 391.76-2.28L391.76-2.28Z"/></g>
</svg>
</g></svg></svg>